<?xml version="1.0" standalone="no"?> <!DOCTYPE svg PUBLIC "-//W3C//DTD SVG 20010904//EN" "http://www.w3.org/TR/2001/REC-SVG-20010904/DTD/svg10.dtd"> <svg version="1.0" xmlns="http://www.w3.org/2000/svg" width="600.000000pt" height="284.000000pt" viewBox="0 0 600.000000 284.000000" preserveAspectRatio="xMidYMid meet"> <g transform="translate(0.000000,284.000000) scale(0.100000,-0.100000)" fill="#004aad" stroke="none"> <path d="M1363 2735 c-11 -8 -33 -45 -48 -82 -46 -115 -69 -168 -77 -179 -5 -6 -27 -14 -51 -18 -76 -12 -324 -76 -419 -107 -117 -39 -152 -57 -206 -105 -51 -45 -63 -95 -42 -169 17 -62 46 -89 121 -114 134 -44 194 -135 224 -338 12 -75 -15 -262 -70 -488 -69 -285 -77 -331 -79 -446 -1 -88 1 -99 26 -136 64 -97 166 -132 200 -70 7 12 13 60 14 107 3 111 46 309 128 590 37 124 73 250 82 280 8 30 44 133 81 230 36 96 69 186 73 200 5 14 36 96 69 184 34 87 61 165 61 172 0 17 8 19 190 48 183 30 590 72 590 61 0 -1 -9 -19 -19 -41 -29 -60 -157 -408 -186 -507 -24 -80 -32 -95 -91 -157 -36 -37 -60 -70 -54 -72 6 -2 2 -8 -9 -15 -22 -14 -23 -3 -2 36 36 65 -15 187 -93 221 -72 32 -120 36 -161 11 -20 -11 -48 -21 -62 -21 -57 0 -111 -46 -195 -166 -122 -174 -191 -451 -149 -598 31 -105 164 -198 263 -182 90 15 185 113 268 277 32 64 64 136 71 159 9 30 23 49 48 65 20 12 37 22 39 20 1 -1 -6 -38 -18 -81 -24 -96 -39 -196 -35 -247 4 -65 79 -127 153 -127 47 0 58 11 102 110 61 138 136 284 188 367 28 45 49 88 46 96 -2 7 13 33 36 58 22 24 40 39 40 32 0 -6 -5 -15 -10 -18 -6 -4 -7 -11 -4 -17 5 -7 2 -9 -8 -6 -11 5 -14 0 -10 -19 3 -16 -1 -30 -10 -37 -24 -18 -49 -73 -84 -189 -94 -304 -83 -453 40 -534 70 -48 149 -40 215 20 29 26 112 151 130 195 l13 31 32 -23 c29 -22 73 -31 133 -27 26 1 133 98 164 148 l22 36 21 -40 c44 -84 114 -143 170 -143 39 0 111 35 135 66 20 26 36 32 28 12 -7 -20 18 -62 62 -101 32 -29 49 -37 79 -37 52 0 67 14 95 91 14 36 36 91 51 122 14 32 26 60 26 63 0 3 17 40 39 83 48 96 58 127 40 115 -10 -6 -10 -3 1 11 8 10 14 20 13 22 -7 9 -2 23 7 18 5 -3 7 0 4 8 -3 8 2 20 10 27 9 7 13 17 9 23 -3 6 -1 7 5 3 8 -5 12 0 12 12 0 11 9 30 21 43 l21 24 -15 -26 c-13 -23 -22 -57 -32 -124 -1 -11 -3 -24 -4 -29 0 -5 -9 -2 -19 7 -15 14 -19 15 -19 2 0 -8 5 -11 10 -8 6 4 8 -1 4 -11 -4 -9 -11 -46 -17 -82 -13 -83 1 -133 51 -186 35 -37 40 -39 90 -36 l54 3 49 99 c26 55 49 110 50 122 0 12 5 20 9 17 4 -2 5 7 2 20 -4 16 -2 28 7 34 7 4 19 20 27 35 8 16 15 27 17 25 4 -4 -21 -89 -36 -122 -7 -16 -14 -59 -14 -95 0 -69 31 -149 77 -198 82 -89 203 -63 297 62 l42 56 21 -40 c31 -63 78 -93 151 -98 58 -4 65 -2 106 29 25 20 48 48 54 67 7 18 15 30 19 25 5 -4 5 0 2 8 -4 10 3 22 19 33 17 10 23 22 20 34 -5 14 -4 14 4 3 7 -10 7 -21 0 -34 -5 -11 -15 -38 -22 -61 -6 -22 -18 -41 -25 -41 -8 0 -24 -27 -36 -60 -22 -58 -24 -60 -76 -76 -149 -46 -323 -154 -435 -270 -89 -94 -109 -122 -139 -204 -37 -96 -35 -195 3 -256 16 -24 45 -59 66 -77 36 -31 39 -32 131 -32 79 0 104 4 151 25 137 60 243 196 399 511 l90 181 82 8 c80 7 119 4 196 -16 28 -8 37 -15 37 -32 1 -38 26 -61 66 -60 47 1 65 21 71 76 14 123 -118 207 -324 207 -58 0 -63 2 -54 17 16 31 97 282 150 465 28 98 63 211 77 250 49 138 50 145 31 181 -22 39 -73 76 -118 83 -48 8 -70 -15 -109 -111 -61 -152 -207 -402 -329 -564 -31 -40 -56 -76 -57 -80 -2 -17 -17 -41 -26 -41 -12 0 -6 33 9 45 7 6 19 36 27 67 16 61 58 185 80 233 96 209 97 213 86 253 -13 51 -41 85 -84 106 -47 22 -79 20 -103 -7 -23 -25 -91 -163 -124 -253 -12 -32 -25 -63 -29 -69 -4 -5 -21 -35 -38 -65 -28 -52 -92 -153 -109 -175 -43 -53 -82 -118 -77 -127 5 -8 1 -9 -10 -5 -13 5 -17 3 -13 -7 3 -8 0 -20 -8 -26 -12 -10 -13 -7 -5 17 5 15 16 53 25 83 9 30 39 123 66 206 68 209 66 262 -11 317 -50 36 -103 36 -150 2 -34 -25 -52 -49 -56 -72 -3 -15 -34 -48 -34 -36 -1 4 -7 -5 -15 -22 l-14 -30 6 30 c3 17 14 42 24 56 10 14 15 30 11 34 -4 5 -2 5 4 2 20 -11 37 73 25 119 -22 83 -115 141 -180 114 -37 -15 -141 -124 -173 -180 -13 -22 -26 -40 -29 -40 -4 0 -12 14 -19 30 -17 41 -62 72 -114 77 -54 7 -68 -7 -96 -94 -28 -88 -159 -349 -199 -398 -27 -32 -121 -173 -121 -180 0 -4 8 -2 18 6 9 7 6 1 -8 -13 -20 -20 -27 -22 -33 -11 -10 16 1 55 13 48 5 -3 14 14 20 37 6 24 31 103 56 175 48 141 50 181 15 220 -9 10 -22 37 -29 61 -38 127 -199 200 -312 142 -140 -71 -338 -360 -376 -550 -11 -58 -31 -103 -84 -197 -38 -67 -67 -129 -64 -137 3 -8 -4 -21 -17 -30 -28 -19 -32 -16 -23 19 7 27 8 27 21 9 12 -17 13 -16 8 11 -4 22 18 104 81 295 142 434 145 448 94 518 -50 70 -116 89 -186 56 -71 -34 -242 -229 -229 -262 2 -7 1 -11 -4 -8 -5 3 -12 -5 -15 -19 -4 -14 -13 -25 -22 -25 -11 0 -14 -6 -9 -22 6 -18 5 -20 -5 -11 -9 9 -9 19 1 47 7 20 17 36 21 36 9 0 32 50 64 145 13 39 28 79 33 90 14 28 54 135 89 235 35 98 107 278 115 286 3 3 31 0 61 -7 47 -10 59 -18 76 -46 16 -27 25 -33 53 -33 44 0 68 27 74 82 10 86 -55 177 -143 200 -42 12 -44 14 -44 51 0 50 -22 90 -63 116 -68 42 -116 19 -157 -73 l-24 -56 -62 0 c-94 0 -365 -19 -499 -35 -163 -19 -215 -23 -215 -17 0 2 5 22 11 43 10 32 9 46 -5 84 -29 76 -135 120 -193 80z m153 -111 c5 -28 -5 -73 -33 -150 -3 -8 26 -7 99 2 311 38 401 46 580 51 l197 6 27 66 c35 84 47 95 86 75 38 -20 59 -67 47 -108 -14 -49 -11 -56 21 -56 84 0 170 -75 170 -150 0 -34 -14 -60 -32 -60 -4 0 -8 8 -8 18 0 38 -57 66 -158 78 l-58 6 -13 -43 c-7 -24 -21 -62 -31 -84 -33 -74 -51 -119 -82 -210 -17 -49 -46 -126 -64 -171 -56 -136 -191 -561 -181 -570 2 -2 41 55 87 127 97 153 198 279 265 332 64 49 104 50 151 3 53 -53 50 -75 -66 -426 -110 -333 -143 -480 -107 -480 50 0 231 283 255 400 19 91 51 167 124 287 105 175 207 263 302 263 49 0 98 -20 133 -55 24 -25 45 -85 34 -99 -7 -9 -2 -17 19 -30 45 -26 47 -54 10 -159 -48 -136 -70 -215 -76 -277 -7 -61 -7 -60 -5 -77 4 -40 77 25 166 148 87 119 254 439 255 489 1 8 6 25 13 37 12 22 12 22 52 4 40 -18 65 -53 65 -91 0 -10 -20 -80 -44 -157 -47 -145 -41 -150 26 -18 91 181 255 395 302 395 29 0 62 -21 85 -55 30 -44 27 -62 -45 -269 -43 -123 -53 -161 -43 -170 9 -8 10 -8 5 1 -14 24 147 242 218 296 38 29 73 27 111 -9 38 -35 33 -87 -25 -259 -63 -189 -99 -375 -71 -375 20 0 105 87 159 163 97 136 150 229 217 379 93 208 98 217 118 218 28 0 73 -36 87 -70 11 -28 8 -39 -44 -156 -32 -69 -73 -172 -91 -228 -35 -104 -64 -250 -52 -262 24 -24 163 132 272 303 101 158 169 287 226 423 13 30 26 59 30 64 12 14 54 -1 83 -31 33 -32 32 -36 -19 -183 -20 -57 -61 -188 -90 -290 -30 -102 -66 -219 -80 -260 -15 -41 -33 -94 -40 -116 -7 -23 -21 -56 -29 -72 -9 -17 -16 -32 -16 -34 0 -2 53 -4 118 -4 96 -1 128 -5 177 -24 82 -32 117 -70 113 -124 -2 -29 -8 -42 -20 -44 -12 -2 -17 5 -20 30 -5 53 -55 72 -201 76 -65 2 -137 1 -161 -2 -40 -6 -43 -9 -60 -55 -31 -87 -191 -379 -219 -401 -16 -12 -26 -27 -24 -34 7 -18 -49 -91 -105 -138 -79 -66 -155 -98 -233 -98 -61 0 -68 2 -106 37 -57 52 -73 87 -71 158 3 112 43 189 157 306 110 112 320 237 442 263 17 4 36 13 40 19 13 17 134 345 158 427 4 14 16 42 26 63 11 20 15 37 10 37 -5 0 -34 -44 -64 -97 -67 -117 -148 -225 -200 -267 -91 -73 -204 -1 -224 144 l-8 55 -24 -45 c-40 -78 -130 -181 -175 -200 -54 -24 -88 -16 -130 31 -53 58 -71 132 -57 233 12 89 54 238 77 274 8 12 12 27 8 33 -10 17 -152 -207 -220 -348 -70 -146 -79 -153 -133 -108 -45 38 -55 80 -41 171 13 83 64 270 103 377 13 37 22 67 18 67 -6 -1 -68 -99 -129 -205 -84 -149 -225 -446 -257 -542 -15 -47 -20 -53 -45 -53 -20 0 -38 12 -64 40 -20 22 -36 46 -36 53 0 33 29 187 39 205 13 25 14 32 3 32 -4 0 -18 -21 -31 -48 -66 -138 -149 -222 -218 -222 -32 0 -99 62 -127 117 -17 34 -23 114 -12 151 15 45 -10 20 -52 -53 -24 -41 -74 -108 -112 -147 -65 -71 -69 -73 -115 -73 -44 0 -50 4 -90 47 l-43 48 -37 -78 c-92 -194 -182 -275 -261 -234 -45 23 -65 43 -85 87 -45 98 -12 265 135 680 25 72 46 134 46 139 0 14 -29 -15 -89 -89 -121 -148 -210 -297 -303 -504 -28 -64 -57 -122 -64 -130 -17 -18 -61 -1 -99 39 l-28 29 12 89 c11 87 62 305 81 351 17 37 7 35 -41 -9 -24 -23 -66 -53 -94 -67 -27 -14 -51 -26 -52 -27 -2 -2 -14 -33 -28 -71 -13 -38 -36 -80 -50 -95 -15 -15 -23 -33 -20 -42 9 -23 -59 -132 -124 -198 -42 -43 -67 -60 -95 -65 -89 -17 -189 54 -222 158 -16 52 -17 67 -6 143 26 177 99 352 190 454 12 13 22 28 22 33 0 13 91 66 106 60 8 -3 33 5 56 17 67 35 147 11 188 -56 21 -33 22 -44 16 -135 l-6 -99 50 36 c58 42 180 170 180 190 0 34 144 439 214 602 20 46 36 85 36 86 0 3 -121 -4 -315 -19 -155 -12 -534 -67 -556 -81 -4 -2 -14 -23 -23 -47 -9 -23 -66 -175 -127 -337 -168 -446 -288 -842 -349 -1155 -22 -115 -29 -173 -25 -207 6 -38 4 -49 -8 -54 -25 -9 -69 18 -105 66 l-35 45 6 95 c6 103 23 188 94 470 l47 185 1 180 c0 176 -1 181 -29 250 -51 122 -112 180 -234 220 -45 14 -56 23 -68 51 -8 18 -14 51 -14 73 0 32 6 44 35 70 20 17 52 39 73 50 62 31 248 87 422 126 91 21 171 41 179 45 7 4 32 56 55 116 54 139 61 152 88 156 37 6 97 -39 104 -78z m31 -120 c-3 -3 -12 -4 -19 -1 -8 3 -5 6 6 6 11 1 17 -2 13 -5z m708 -134 c3 -5 1 -10 -4 -10 -6 0 -11 5 -11 10 0 6 2 10 4 10 3 0 8 -4 11 -10z m1557 -648 c-7 -2 -9 -9 -6 -14 5 -7 2 -8 -6 -3 -10 6 -12 4 -7 -9 4 -10 3 -15 -3 -11 -6 3 -10 12 -10 19 0 18 21 36 34 29 6 -4 6 -8 -2 -11z m-1642 -236 c0 -3 -4 -8 -10 -11 -5 -3 -10 -1 -10 4 0 6 5 11 10 11 6 0 10 -2 10 -4z m-240 -76 c0 -24 -15 -27 -24 -4 -3 8 -2 12 4 9 6 -3 10 -1 10 4 0 6 2 11 5 11 3 0 5 -9 5 -20z m-219 -223 c-10 -9 -11 -8 -5 6 3 10 9 15 12 12 3 -3 0 -11 -7 -18z m1341 -2 c3 -13 1 -22 -4 -19 -5 3 -19 -2 -31 -12 -21 -18 -21 -18 1 7 12 14 22 31 22 37 0 21 7 13 12 -13z m1477 -22 c7 -15 5 -18 -13 -18 -13 0 -23 5 -23 12 0 6 7 9 15 5 10 -3 13 -1 8 6 -4 7 -5 12 -2 12 3 0 10 -8 15 -17z m-1132 -85 c-3 -8 -6 -5 -6 6 -1 11 2 17 5 13 3 -3 4 -12 1 -19z m-700 -32 c0 -8 -6 -12 -15 -9 -11 5 -11 7 0 14 7 5 13 9 14 9 0 0 1 -6 1 -14z m2378 -66 c3 -5 1 -10 -4 -10 -6 0 -11 5 -11 10 0 6 2 10 4 10 3 0 8 -4 11 -10z"/> <path d="M2223 2493 c9 -2 23 -2 30 0 6 3 -1 5 -18 5 -16 0 -22 -2 -12 -5z"/> <path d="M1165 2255 c-22 -8 -112 -34 -201 -59 -88 -25 -191 -59 -229 -76 l-68 -31 53 -27 c117 -60 217 -213 248 -382 17 -87 19 -92 26 -60 15 64 159 477 221 633 8 19 5 19 -50 2z m9 -50 c-4 -8 -10 -13 -15 -10 -4 3 -6 12 -3 20 4 8 10 13 15 10 4 -3 6 -12 3 -20z m-92 -172 c-33 -87 -65 -177 -72 -201 -10 -40 -30 -50 -30 -15 0 34 -69 142 -131 205 l-66 67 41 15 c23 8 84 27 136 42 52 14 113 32 135 38 22 7 41 11 43 10 2 -1 -23 -73 -56 -161z m-316 42 c1 -8 -4 -11 -12 -8 -15 6 -18 16 -7 26 8 9 16 1 19 -18z m239 -319 c-2 -26 -17 -24 -26 3 -6 15 -4 19 10 18 11 -1 17 -8 16 -21z"/> <path d="M2465 1741 c-3 -5 -2 -12 3 -15 5 -3 9 1 9 9 0 17 -3 19 -12 6z"/> <path d="M1695 1713 c-22 -22 -62 -109 -70 -155 -4 -21 -2 -52 5 -72 10 -32 16 -36 45 -36 18 0 37 6 43 13 27 33 42 209 22 248 -13 23 -24 24 -45 2z m23 -39 c4 2 7 -9 8 -26 1 -17 -2 -24 -6 -18 -8 13 -30 -72 -30 -115 0 -14 -4 -25 -10 -25 -15 0 -12 49 5 106 18 59 18 57 5 49 -6 -3 -5 6 2 20 7 15 14 22 16 16 2 -6 7 -9 10 -7z"/> <path d="M2910 1715 c-7 -9 -11 -18 -8 -20 3 -3 11 1 18 10 7 9 11 18 8 20 -3 3 -11 -1 -18 -10z"/> <path d="M3124 1710 c-66 -27 -181 -175 -258 -333 -49 -100 -92 -238 -78 -251 11 -11 68 42 143 132 44 53 79 100 79 106 0 6 10 21 23 32 22 22 112 166 134 216 6 14 21 36 34 49 16 16 20 26 12 38 -12 18 -58 24 -89 11z m59 -39 c-4 -4 -12 -11 -17 -16 -6 -6 -7 -2 -3 10 7 19 7 19 -8 1 -8 -10 -12 -23 -9 -28 3 -5 0 -7 -6 -6 -6 2 -29 -26 -50 -62 -21 -36 -80 -122 -130 -193 -51 -72 -88 -132 -84 -139 4 -7 3 -8 -4 -4 -7 4 -12 1 -12 -9 0 -9 -4 -13 -10 -10 -5 3 -7 0 -4 -8 3 -8 -2 -17 -10 -20 -11 -4 -13 0 -10 21 8 45 15 63 24 57 4 -3 34 43 64 101 71 134 103 179 184 265 52 56 67 67 79 58 8 -7 10 -15 6 -18z"/> <path d="M4035 1629 c-4 -6 -5 -12 -2 -15 2 -3 7 2 10 11 7 17 1 20 -8 4z"/> <path d="M1021 1604 c0 -11 3 -14 6 -6 3 7 2 16 -1 19 -3 4 -6 -2 -5 -13z"/> <path d="M1476 1432 c-58 -128 -96 -256 -96 -325 0 -61 12 -97 33 -97 27 1 94 65 145 138 50 72 127 211 120 216 -2 2 -25 13 -51 25 -49 24 -97 80 -97 113 0 36 -16 15 -54 -70z m54 -3 c0 -6 -4 -7 -10 -4 -5 3 -10 11 -10 16 0 6 5 7 10 4 6 -3 10 -11 10 -16z m49 -70 l39 -22 -36 -61 c-19 -33 -61 -96 -94 -139 -32 -43 -56 -82 -53 -87 3 -4 -4 -6 -16 -3 -18 5 -19 7 -5 15 10 6 16 23 16 48 0 49 33 172 67 248 20 46 26 53 34 40 5 -9 27 -27 48 -39z"/> <path d="M5131 1484 c0 -11 3 -14 6 -6 3 7 2 16 -1 19 -3 4 -6 -2 -5 -13z"/> <path d="M5005 1479 c-4 -6 -5 -12 -2 -15 2 -3 7 2 10 11 7 17 1 20 -8 4z"/> <path d="M4683 755 c-99 -46 -164 -88 -228 -143 -149 -130 -223 -301 -164 -376 11 -14 30 -26 42 -26 62 0 192 109 274 231 64 95 197 359 181 358 -7 0 -54 -20 -105 -44z m51 -17 c-9 -30 -8 -30 -28 -22 -9 3 -13 10 -10 15 3 5 9 7 14 4 4 -3 10 2 14 10 9 24 18 17 10 -7z m-36 -45 c-9 -10 -33 -52 -53 -93 -70 -140 -158 -252 -241 -307 -64 -42 -84 -39 -84 14 1 111 133 267 310 366 72 40 91 46 68 20z"/> <path d="M4336 553 c-6 -14 -5 -15 5 -6 7 7 10 15 7 18 -3 3 -9 -2 -12 -12z"/> <path d="M4226 417 c-9 -23 -16 -49 -15 -57 0 -8 9 9 20 39 23 65 19 80 -5 18z"/> <path d="M4566 271 c-3 -4 4 -7 14 -6 27 2 33 10 10 12 -11 1 -22 -2 -24 -6z"/> <path d="M2325 2699 c-4 -6 -5 -12 -2 -15 2 -3 7 2 10 11 7 17 1 20 -8 4z"/> <path d="M4861 1084 c0 -11 3 -14 6 -6 3 7 2 16 -1 19 -3 4 -6 -2 -5 -13z"/> <path d="M1845 939 c-4 -6 -5 -12 -2 -15 2 -3 7 2 10 11 7 17 1 20 -8 4z"/> <path d="M3729 846 c-2 -2 -58 -6 -124 -9 -104 -5 -240 -19 -570 -57 -44 -5 -141 -18 -215 -30 -74 -12 -160 -25 -190 -30 -579 -89 -1388 -296 -1452 -372 -26 -29 -23 -103 5 -158 22 -45 22 -45 79 -48 41 -2 71 3 103 17 25 11 91 30 148 42 115 24 133 31 141 57 4 12 23 23 49 29 23 6 131 34 239 62 108 27 266 64 350 81 84 17 171 35 193 40 176 40 587 105 991 156 264 33 655 39 697 9 30 -21 59 -19 91 6 20 16 26 29 26 61 0 79 -46 120 -158 138 -54 9 -394 14 -403 6z m463 -70 c22 -10 40 -29 46 -44 15 -43 -13 -94 -33 -61 -16 24 -70 30 -285 30 -241 -1 -270 -4 -855 -81 -199 -26 -732 -127 -1008 -191 -153 -35 -571 -150 -581 -160 -13 -12 -11 -12 80 6 43 8 80 13 82 10 9 -8 -43 -23 -124 -35 -43 -7 -113 -25 -154 -41 -41 -16 -85 -29 -97 -29 -29 0 -53 45 -53 98 0 42 11 56 50 65 14 3 63 19 110 37 140 51 601 168 930 234 232 47 655 111 925 141 356 39 426 44 675 42 223 -2 260 -5 292 -21z"/> <path d="M3260 716 c0 -2 7 -7 16 -10 8 -3 12 -2 9 4 -6 10 -25 14 -25 6z"/> <path d="M2923 693 c9 -2 23 -2 30 0 6 3 -1 5 -18 5 -16 0 -22 -2 -12 -5z"/> <path d="M3340 690 c0 -5 11 -10 24 -10 14 0 28 5 31 10 4 6 -7 10 -24 10 -17 0 -31 -4 -31 -10z"/> <path d="M3245 683 c-16 -3 -34 -9 -40 -15 -13 -14 55 -2 69 12 6 6 8 9 6 9 -3 -1 -18 -4 -35 -6z"/> <path d="M3295 680 c4 -6 11 -8 16 -5 14 9 11 15 -7 15 -8 0 -12 -5 -9 -10z"/> <path d="M2775 670 c-16 -7 -17 -9 -3 -9 9 -1 20 4 23 9 7 11 7 11 -20 0z"/> <path d="M2675 663 c-25 -6 -44 -23 -24 -22 24 1 86 28 64 27 -11 0 -29 -2 -40 -5z"/> <path d="M2845 620 c-18 -8 -18 -9 5 -8 14 0 39 4 55 8 l30 8 -35 0 c-19 0 -44 -3 -55 -8z"/> <path d="M2518 563 c7 -3 16 -2 19 1 4 3 -2 6 -13 5 -11 0 -14 -3 -6 -6z"/> </g> </svg>